<svg width="46" height="47" viewBox="0 0 46 47" fill="none" xmlns="http://www.w3.org/2000/svg" class="size-6 md:size-12"><g id="Layer 3"><g id="Layer 1"><g id="Path 59"><mask id="path-1-inside-1_205_1225" fill="white"><path d="M2.78706 0C2.04789 0 1.33899 0.29377 0.816311 0.816684C0.293636 1.3396 0 2.04882 0 2.78833V22.3201C0 23.0597 0.293636 23.7689 0.816311 24.2918C1.33899 24.8147 2.04789 25.1085 2.78706 25.1085H8.72808C9.04522 24.1971 9.56878 23.3715 10.2578 22.6961C10.9469 22.0208 11.7827 21.5141 12.7 21.2156C13.0569 19.1421 14.0318 17.2249 15.4968 15.7154C16.9618 14.2058 18.8486 13.1744 20.9097 12.7563V0H2.78706Z"></path></mask><path d="M2.78706 0C2.04789 0 1.33899 0.29377 0.816311 0.816684C0.293636 1.3396 0 2.04882 0 2.78833V22.3201C0 23.0597 0.293636 23.7689 0.816311 24.2918C1.33899 24.8147 2.04789 25.1085 2.78706 25.1085H8.72808C9.04522 24.1971 9.56878 23.3715 10.2578 22.6961C10.9469 22.0208 11.7827 21.5141 12.7 21.2156C13.0569 19.1421 14.0318 17.2249 15.4968 15.7154C16.9618 14.2058 18.8486 13.1744 20.9097 12.7563V0H2.78706Z" fill="#FF3D5E" stroke="#0E1A37" stroke-width="2.0641" mask="url(#path-1-inside-1_205_1225)"></path></g><g id="Path 60"><mask id="path-2-inside-2_205_1225" fill="white"><path d="M37.2786 29.2977C36.7225 30.863 35.5686 32.1437 34.0699 32.8589C32.5713 33.5742 30.8503 33.6656 29.2843 33.1131C28.7408 32.9218 28.2256 32.6579 27.7528 32.3285C26.2816 33.0816 24.6526 33.4743 23 33.4743C21.3474 33.4743 19.7184 33.0816 18.2472 32.3285C17.456 32.8869 16.5463 33.2545 15.5894 33.4024C14.6325 33.5503 13.6543 33.4745 12.7316 33.1809C11.8089 32.8873 10.9666 32.3839 10.2709 31.7102C9.57512 31.0365 9.04476 30.2108 8.72134 29.2977H2.78706C2.04963 29.2977 1.34226 29.5901 0.819873 30.1108C0.297487 30.6315 0.00267184 31.3382 0 32.0759V43.2326C-5.38009e-07 43.9725 0.293527 44.682 0.816105 45.2055C1.33868 45.7289 2.04758 46.0234 2.78706 46.0243H43.2129C43.9521 46.0243 44.661 45.7306 45.1836 45.2077C45.7063 44.6847 46 43.9755 46 43.236V32.0759C45.9973 31.3382 45.7025 30.6315 45.1801 30.1108C44.6577 29.5901 43.9503 29.2977 43.2129 29.2977H37.2786Z"></path></mask><path d="M37.2786 29.2977C36.7225 30.863 35.5686 32.1437 34.0699 32.8589C32.5713 33.5742 30.8503 33.6656 29.2843 33.1131C28.7408 32.9218 28.2256 32.6579 27.7528 32.3285C26.2816 33.0816 24.6526 33.4743 23 33.4743C21.3474 33.4743 19.7184 33.0816 18.2472 32.3285C17.456 32.8869 16.5463 33.2545 15.5894 33.4024C14.6325 33.5503 13.6543 33.4745 12.7316 33.1809C11.8089 32.8873 10.9666 32.3839 10.2709 31.7102C9.57512 31.0365 9.04476 30.2108 8.72134 29.2977H2.78706C2.04963 29.2977 1.34226 29.5901 0.819873 30.1108C0.297487 30.6315 0.00267184 31.3382 0 32.0759V43.2326C-5.38009e-07 43.9725 0.293527 44.682 0.816105 45.2055C1.33868 45.7289 2.04758 46.0234 2.78706 46.0243H43.2129C43.9521 46.0243 44.661 45.7306 45.1836 45.2077C45.7063 44.6847 46 43.9755 46 43.236V32.0759C45.9973 31.3382 45.7025 30.6315 45.1801 30.1108C44.6577 29.5901 43.9503 29.2977 43.2129 29.2977H37.2786Z" fill="#334163" stroke="#0E1A37" stroke-width="2.0641" mask="url(#path-2-inside-2_205_1225)"></path></g><g id="Path 61"><mask id="path-3-inside-3_205_1225" fill="white"><path d="M43.2129 4.64132e-10H25.0903V12.7664C27.1506 13.1832 29.0371 14.2129 30.5026 15.7205C31.9681 17.2282 32.9443 19.1435 33.3034 21.2156C34.2186 21.5128 35.0531 22.0172 35.7419 22.6894C36.4308 23.3616 36.9555 24.1836 37.2752 25.0916H43.2129C43.579 25.0921 43.9416 25.0203 44.28 24.8803C44.6183 24.7403 44.9257 24.535 45.1846 24.2759C45.4435 24.0169 45.6488 23.7094 45.7887 23.3709C45.9286 23.0324 46.0004 22.6696 46 22.3033V2.7715C45.9955 2.03491 45.6999 1.33 45.1777 0.810722C44.6555 0.291444 43.9492 -1.34299e-05 43.2129 4.64132e-10Z"></path></mask><path d="M43.2129 4.64132e-10H25.0903V12.7664C27.1506 13.1832 29.0371 14.2129 30.5026 15.7205C31.9681 17.2282 32.9443 19.1435 33.3034 21.2156C34.2186 21.5128 35.0531 22.0172 35.7419 22.6894C36.4308 23.3616 36.9555 24.1836 37.2752 25.0916H43.2129C43.579 25.0921 43.9416 25.0203 44.28 24.8803C44.6183 24.7403 44.9257 24.535 45.1846 24.2759C45.4435 24.0169 45.6488 23.7094 45.7887 23.3709C45.9286 23.0324 46.0004 22.6696 46 22.3033V2.7715C45.9955 2.03491 45.6999 1.33 45.1777 0.810722C44.6555 0.291444 43.9492 -1.34299e-05 43.2129 4.64132e-10Z" fill="#70E3C0" stroke="#0E1A37" stroke-width="2.0641" mask="url(#path-3-inside-3_205_1225)"></path></g></g></g></svg>