<svg width="852" height="234" viewBox="0 0 852 234" fill="none" xmlns="http://www.w3.org/2000/svg">
<circle cx="168.517" cy="95.4827" r="2.22414" stroke="#FC6D27" stroke-width="3"/>
<circle cx="173.172" cy="88.9655" r="1.7931" stroke="#FCA326" stroke-width="2"/>
<path d="M140.063 162.237C140.061 163.203 139.721 165.429 140.644 165.705C143.93 167.151 146.087 166.724 159.958 166.699C178.987 167.427 175.831 166.875 178.987 164.596C178.987 161.491 179.384 162.237 175.831 157.764C174.781 156.443 171.316 152.622 170.982 152.195C170.274 151.291 169.35 150.972 167.53 151.002C166.107 151.025 164.643 151.632 162.177 153.222C158.705 155.459 158.387 153.222 156.211 153.222C154.623 153.222 152.392 155.92 150.72 154.561C149.934 153.922 149.054 153.349 148.763 153.286C147.628 153.041 147.404 153.254 143.325 158.442C139.741 161.767 140.065 161.521 140.063 162.237Z" fill="#FCA326"/>
<path d="M135.087 171.451C135.084 172.78 134.613 175.84 135.892 176.219C140.441 178.208 143.427 177.621 162.635 177.586C188.982 178.588 184.612 177.828 188.982 174.695C188.982 170.426 189.532 171.451 184.612 165.301C183.158 163.484 178.361 158.23 177.898 157.643C176.918 156.401 175.638 155.961 173.118 156.003C171.148 156.035 169.121 156.87 165.706 159.055C160.899 162.131 160.458 159.055 157.446 159.055C155.248 159.055 152.158 162.765 149.843 160.896C148.755 160.018 147.536 159.23 147.134 159.143C145.562 158.807 145.252 159.099 139.604 166.232C134.641 170.805 135.09 170.466 135.087 171.451Z" fill="#FC6D27"/>
<path d="M135.087 175.939C135.084 176.966 134.613 179.331 135.892 179.624C140.441 181.161 143.427 180.707 162.635 180.68C188.982 181.454 184.612 180.867 188.982 178.446C188.982 175.147 189.532 175.939 184.612 171.187C183.158 169.783 178.361 165.723 177.898 165.27C176.918 164.31 175.638 163.97 173.118 164.002C171.148 164.027 169.121 164.672 165.706 166.36C160.899 168.737 160.458 166.36 157.446 166.36C155.248 166.36 152.158 169.228 149.843 167.784C148.755 167.105 147.536 166.496 147.134 166.429C145.562 166.169 145.252 166.394 139.604 171.907C134.641 175.44 135.09 175.178 135.087 175.939Z" fill="#E2432A"/>
<path d="M154.491 146.79V113.736L152.086 110.065C151.65 109.4 152.127 108.517 152.922 108.517H170.52C171.34 108.517 171.812 109.45 171.325 110.111L168.652 113.736V146.79L189 170.524V177.523L182.533 183H141.467L135 177.523V170.524L154.491 146.79Z" stroke="#383838" stroke-width="5"/>
<circle cx="169.379" cy="165.103" r="1" fill="#E5E5E5"/>
<circle cx="166.862" cy="160.862" r="1.86207" fill="#E5E5E5"/>
<path d="M121.484 166.348C116.667 173.249 109.928 178.424 101.27 181.875C92.6758 185.26 82.6497 186.953 71.1914 186.953C59.6029 186.953 49.3164 184.251 40.332 178.848C31.3477 173.379 24.3815 165.632 19.4336 155.605C14.5508 145.579 12.0443 133.958 11.9141 120.742V108.34C11.9141 86.9206 16.8945 70.319 26.8555 58.5352C36.8815 46.7513 50.944 40.8594 69.043 40.8594C83.8867 40.8594 95.8333 44.668 104.883 52.2852C113.932 59.8372 119.466 70.5794 121.484 84.5117H102.734C99.2188 65.6966 88.0208 56.2891 69.1406 56.2891C56.5755 56.2891 47.0378 60.7161 40.5273 69.5703C34.082 78.3594 30.8268 91.1198 30.7617 107.852V119.473C30.7617 135.423 34.4076 148.118 41.6992 157.559C48.9909 166.934 58.8542 171.621 71.2891 171.621C78.3203 171.621 84.4727 170.84 89.7461 169.277C95.0195 167.715 99.3815 165.078 102.832 161.367V129.434H69.9219V114.199H121.484V166.348ZM224.121 53.75V79.3359H243.848V93.3008H224.121V158.828C224.121 163.06 225 166.25 226.758 168.398C228.516 170.482 231.51 171.523 235.742 171.523C237.826 171.523 240.69 171.133 244.336 170.352V185C239.583 186.302 234.961 186.953 230.469 186.953C222.396 186.953 216.309 184.512 212.207 179.629C208.105 174.746 206.055 167.812 206.055 158.828V93.3008H186.816V79.3359H206.055V53.75H224.121ZM354.492 133.34C354.492 149.486 350.781 162.474 343.359 172.305C335.938 182.07 325.977 186.953 313.477 186.953C300.13 186.953 289.811 182.233 282.52 172.793L281.641 185H265.039V35H283.105V90.957C290.397 81.9076 300.456 77.3828 313.281 77.3828C326.107 77.3828 336.165 82.2331 343.457 91.9336C350.814 101.634 354.492 114.915 354.492 131.777V133.34ZM336.426 131.289C336.426 118.984 334.049 109.479 329.297 102.773C324.544 96.0677 317.708 92.7148 308.789 92.7148C296.875 92.7148 288.314 98.2487 283.105 109.316V155.02C288.639 166.087 297.266 171.621 308.984 171.621C317.643 171.621 324.382 168.268 329.199 161.562C334.017 154.857 336.426 144.766 336.426 131.289ZM421.191 186.953C406.868 186.953 395.215 182.266 386.23 172.891C377.246 163.451 372.754 150.853 372.754 135.098V131.777C372.754 121.296 374.74 111.953 378.711 103.75C382.747 95.4818 388.346 89.0365 395.508 84.4141C402.734 79.7266 410.547 77.3828 418.945 77.3828C432.682 77.3828 443.359 81.9076 450.977 90.957C458.594 100.007 462.402 112.962 462.402 129.824V137.344H390.82C391.081 147.76 394.108 156.191 399.902 162.637C405.762 169.017 413.184 172.207 422.168 172.207C428.548 172.207 433.952 170.905 438.379 168.301C442.806 165.697 446.68 162.246 450 157.949L461.035 166.543C452.181 180.15 438.9 186.953 421.191 186.953ZM418.945 92.2266C411.654 92.2266 405.534 94.8958 400.586 100.234C395.638 105.508 392.578 112.93 391.406 122.5H444.336V121.133C443.815 111.953 441.341 104.857 436.914 99.8438C432.487 94.7656 426.497 92.2266 418.945 92.2266ZM548.633 185C547.591 182.917 546.745 179.206 546.094 173.867C537.695 182.591 527.669 186.953 516.016 186.953C505.599 186.953 497.038 184.023 490.332 178.164C483.691 172.24 480.371 164.753 480.371 155.703C480.371 144.701 484.538 136.172 492.871 130.117C501.27 123.997 513.053 120.938 528.223 120.938H545.801V112.637C545.801 106.322 543.913 101.309 540.137 97.5977C536.361 93.8216 530.794 91.9336 523.438 91.9336C516.992 91.9336 511.589 93.5612 507.227 96.8164C502.865 100.072 500.684 104.01 500.684 108.633H482.52C482.52 103.359 484.375 98.2812 488.086 93.3984C491.862 88.4505 496.94 84.5443 503.32 81.6797C509.766 78.8151 516.829 77.3828 524.512 77.3828C536.686 77.3828 546.224 80.4427 553.125 86.5625C560.026 92.6172 563.607 100.983 563.867 111.66V160.293C563.867 169.993 565.104 177.708 567.578 183.438V185H548.633ZM518.652 171.23C524.316 171.23 529.688 169.766 534.766 166.836C539.844 163.906 543.522 160.098 545.801 155.41V133.73H531.641C509.505 133.73 498.438 140.208 498.438 153.164C498.438 158.828 500.326 163.255 504.102 166.445C507.878 169.635 512.728 171.23 518.652 171.23ZM621.68 136.074L610.352 147.891V185H592.285V35H610.352V125.723L620.02 114.102L652.93 79.3359H674.902L633.789 123.477L679.688 185H658.496L621.68 136.074ZM735.449 186.953C721.126 186.953 709.473 182.266 700.488 172.891C691.504 163.451 687.012 150.853 687.012 135.098V131.777C687.012 121.296 688.997 111.953 692.969 103.75C697.005 95.4818 702.604 89.0365 709.766 84.4141C716.992 79.7266 724.805 77.3828 733.203 77.3828C746.94 77.3828 757.617 81.9076 765.234 90.957C772.852 100.007 776.66 112.962 776.66 129.824V137.344H705.078C705.339 147.76 708.366 156.191 714.16 162.637C720.02 169.017 727.441 172.207 736.426 172.207C742.806 172.207 748.21 170.905 752.637 168.301C757.064 165.697 760.938 162.246 764.258 157.949L775.293 166.543C766.439 180.15 753.158 186.953 735.449 186.953ZM733.203 92.2266C725.911 92.2266 719.792 94.8958 714.844 100.234C709.896 105.508 706.836 112.93 705.664 122.5H758.594V121.133C758.073 111.953 755.599 104.857 751.172 99.8438C746.745 94.7656 740.755 92.2266 733.203 92.2266ZM848.73 95.5469C845.996 95.0911 843.034 94.8633 839.844 94.8633C827.995 94.8633 819.954 99.9089 815.723 110V185H797.656V79.3359H815.234L815.527 91.543C821.452 82.1029 829.85 77.3828 840.723 77.3828C844.238 77.3828 846.908 77.8385 848.73 78.75V95.5469Z" fill="#383838"/>
</svg>
