<svg width="60" height="100" viewBox="0 0 60 100" fill="none" xmlns="http://www.w3.org/2000/svg">
<circle cx="36.5172" cy="9.48268" r="2.22414" stroke="#FC6D27" stroke-width="3"/>
<circle cx="41.1724" cy="2.96547" r="1.7931" stroke="#FCA326" stroke-width="2"/>
<path d="M8.06306 76.2369C8.06062 77.2035 7.72081 79.4293 8.64417 79.7048C11.9298 81.1512 14.0865 80.7243 27.9585 80.6987C46.9867 81.4273 43.8306 80.8751 46.9867 78.5964C46.9867 75.4914 47.3839 76.2369 43.8306 71.7642C42.7811 70.4431 39.3162 66.6221 38.9819 66.1952C38.2741 65.2915 37.3497 64.9719 35.5299 65.0019C34.1067 65.0254 32.6426 65.6324 30.1766 67.2215C26.705 69.4587 26.3866 67.2215 24.211 67.2215C22.6235 67.2215 20.3919 69.9202 18.7198 68.561C17.9342 67.9224 17.0538 67.3488 16.7633 67.2861C15.628 67.0414 15.4042 67.2536 11.3249 72.4416C7.74084 75.7675 8.0648 75.5206 8.06306 76.2369Z" fill="#FCA326"/>
<path d="M3.08731 85.4508C3.08393 86.7797 2.61342 89.8403 3.89192 90.2191C8.4413 92.2079 11.4275 91.6209 30.6348 91.5857C56.9816 92.5875 52.6115 91.8283 56.9816 88.695C56.9816 84.4257 57.5315 85.4508 52.6116 79.3007C51.1584 77.4843 46.3609 72.2304 45.898 71.6434C44.918 70.4007 43.638 69.9613 41.1184 70.0026C39.1477 70.0349 37.1205 70.8696 33.706 73.0546C28.8992 76.1307 28.4584 73.0546 25.446 73.0546C23.2479 73.0546 20.158 76.7653 17.8428 74.8963C16.7551 74.0184 15.5361 73.2296 15.1338 73.1435C13.5619 72.807 13.252 73.0987 7.60374 80.2322C2.64116 84.8053 3.08972 84.4658 3.08731 85.4508Z" fill="#FC6D27"/>
<path d="M3.08731 89.9392C3.08393 90.9662 2.61342 93.3312 3.89192 93.6238C8.4413 95.1607 11.4275 94.707 30.6348 94.6799C56.9816 95.454 52.6115 94.8673 56.9816 92.4461C56.9816 89.1471 57.5315 89.9392 52.6116 85.1869C51.1584 83.7833 46.3609 79.7235 45.898 79.2699C44.918 78.3097 43.638 77.9701 41.1184 78.002C39.1477 78.027 37.1205 78.672 33.706 80.3604C28.8992 82.7373 28.4584 80.3604 25.446 80.3604C23.2479 80.3604 20.158 83.2277 17.8428 81.7835C16.7551 81.1051 15.5361 80.4956 15.1338 80.429C13.5619 80.169 13.252 80.3945 7.60374 85.9067C2.64116 89.4404 3.08972 89.1781 3.08731 89.9392Z" fill="#E2432A"/>
<path d="M22.491 60.7898V27.7356L20.0859 24.0653C19.6501 23.4003 20.1272 22.5172 20.9223 22.5172H38.5201C39.3404 22.5172 39.8118 23.4505 39.3249 24.1107L36.6518 27.7356V60.7898L57 84.5242V91.5228L50.5329 97H9.46707L3 91.5228V84.5242L22.491 60.7898Z" stroke="#383838" stroke-width="5"/>
<circle cx="37.3793" cy="79.1034" r="1" fill="#E5E5E5"/>
<circle cx="34.8621" cy="74.8621" r="1.86207" fill="#E5E5E5"/>
</svg>
